<?xml version="1.0" encoding="UTF-8" standalone="no"?>
<svg width="308px" height="180px" viewBox="0 0 308 180" version="1.1" xmlns="http://www.w3.org/2000/svg" xmlns:xlink="http://www.w3.org/1999/xlink" xmlns:sketch="http://www.bohemiancoding.com/sketch/ns">
    <title>Untitled 1</title>
    <description>Created with Sketch (http://www.bohemiancoding.com/sketch)</description>
    <defs></defs>
    <g id="Page-1" stroke="none" stroke-width="1" fill="none" fill-rule="evenodd" sketch:type="MSPage">
        <g id="Artboard-1" sketch:type="MSArtboardGroup" transform="translate(-578.000000, -103.000000)">
            <g id="CSS" sketch:type="MSLayerGroup" transform="translate(584.000000, 103.000000)">
                <rect id="Rectangle-1" stroke="#1072B8" stroke-width="4" sketch:type="MSShapeGroup" x="0" y="30" width="272" height="140" rx="6"></rect>
                <path d="M62.592,100 C62.592,96.2559813 63.1439945,92.7400164 64.248,89.452 C65.3520055,86.1639836 66.9479896,83.3080121 69.036,80.884 C71.1240104,78.4599879 73.6919848,76.552007 76.74,75.16 C79.7880152,73.767993 83.2319808,73.072 87.072,73.072 C90.0960151,73.072 92.711989,73.467996 94.92,74.26 C97.128011,75.052004 98.9879924,76.0359941 100.5,77.212 C102.012008,78.3880059 103.247995,79.671993 104.208,81.064 C105.168005,82.456007 105.899997,83.7639939 106.404,84.988 C106.908003,86.2120061 107.255999,87.2679956 107.448,88.156 C107.640001,89.0440044 107.736,89.5359995 107.736,89.632 L104.568,89.632 C104.231998,87.4719892 103.536005,85.5400085 102.48,83.836 C101.423995,82.1319915 100.104008,80.680006 98.52,79.48 C96.9359921,78.279994 95.1720097,77.3680031 93.228,76.744 C91.2839903,76.1199969 89.2320108,75.808 87.072,75.808 C83.7119832,75.808 80.7120132,76.4559935 78.072,77.752 C75.4319868,79.0480065 73.2000091,80.7879891 71.376,82.972 C69.5519909,85.1560109 68.1600048,87.7119854 67.2,90.64 C66.2399952,93.5680146 65.76,96.6879834 65.76,100 C65.76,103.312017 66.2399952,106.431985 67.2,109.36 C68.1600048,112.288015 69.5519909,114.843989 71.376,117.028 C73.2000091,119.212011 75.4319868,120.951994 78.072,122.248 C80.7120132,123.544006 83.7119832,124.192 87.072,124.192 C89.5680125,124.192 91.9079891,123.676005 94.092,122.644 C96.2760109,121.611995 98.1839918,120.244009 99.816,118.54 C101.448008,116.835991 102.755995,114.868011 103.74,112.636 C104.724005,110.403989 105.287999,108.088012 105.432,105.688 L108.6,105.688 C108.311999,108.760015 107.556006,111.591987 106.332,114.184 C105.107994,116.776013 103.548009,119.019991 101.652,120.916 C99.7559905,122.812009 97.5600125,124.287995 95.064,125.344 C92.5679875,126.400005 89.9040142,126.928 87.072,126.928 C83.2319808,126.928 79.7880152,126.232007 76.74,124.84 C73.6919848,123.447993 71.1240104,121.540012 69.036,119.116 C66.9479896,116.691988 65.3520055,113.836016 64.248,110.548 C63.1439945,107.259984 62.592,103.744019 62.592,100 Z M152.776,88.984 C152.68,86.775989 152.212004,84.8560082 151.372,83.224 C150.531996,81.5919918 149.392007,80.2240055 147.952,79.12 C146.511993,78.0159945 144.79601,77.1880028 142.804,76.636 C140.81199,76.0839972 138.640012,75.808 136.288,75.808 C134.847993,75.808 133.300008,75.9759983 131.644,76.312 C129.987992,76.6480017 128.452007,77.2359958 127.036,78.076 C125.619993,78.9160042 124.456005,80.0439929 123.544,81.46 C122.631995,82.8760071 122.176,84.6399894 122.176,86.752 C122.176,88.8160103 122.679995,90.4959935 123.688,91.792 C124.696005,93.0880065 126.015992,94.131996 127.648,94.924 C129.280008,95.716004 131.151989,96.3519976 133.264,96.832 C135.376011,97.3120024 137.511989,97.7679978 139.672,98.2 C141.880011,98.6320022 144.02799,99.147997 146.116,99.748 C148.20401,100.348003 150.075992,101.163995 151.732,102.196 C153.388008,103.228005 154.719995,104.571992 155.728,106.228 C156.736005,107.884008 157.24,109.959988 157.24,112.456 C157.24,115.144013 156.664006,117.399991 155.512,119.224 C154.359994,121.048009 152.908009,122.535994 151.156,123.688 C149.403991,124.840006 147.460011,125.667997 145.324,126.172 C143.187989,126.676003 141.13601,126.928 139.168,126.928 C136.143985,126.928 133.312013,126.604003 130.672,125.956 C128.031987,125.307997 125.72801,124.252007 123.76,122.788 C121.79199,121.323993 120.244006,119.440012 119.116,117.136 C117.987994,114.831988 117.448,112.024017 117.496,108.712 L120.664,108.712 C120.519999,111.544014 120.927995,113.93199 121.888,115.876 C122.848005,117.82001 124.179991,119.415994 125.884,120.664 C127.588009,121.912006 129.591988,122.811997 131.896,123.364 C134.200012,123.916003 136.623987,124.192 139.168,124.192 C140.704008,124.192 142.347991,124.000002 144.1,123.616 C145.852009,123.231998 147.459993,122.584005 148.924,121.672 C150.388007,120.759995 151.611995,119.560007 152.596,118.072 C153.580005,116.583993 154.072,114.712011 154.072,112.456 C154.072,110.295989 153.568005,108.532007 152.56,107.164 C151.551995,105.795993 150.220008,104.692004 148.564,103.852 C146.907992,103.011996 145.03601,102.340003 142.948,101.836 C140.85999,101.331997 138.712011,100.864002 136.504,100.432 C134.343989,99.9999978 132.208011,99.4960029 130.096,98.92 C127.983989,98.3439971 126.112008,97.5640049 124.48,96.58 C122.847992,95.5959951 121.528005,94.3240078 120.52,92.764 C119.511995,91.2039922 119.008,89.2000122 119.008,86.752 C119.008,84.3039878 119.523995,82.2040088 120.556,80.452 C121.588005,78.6999912 122.931992,77.2840054 124.588,76.204 C126.244008,75.1239946 128.10399,74.3320025 130.168,73.828 C132.23201,73.3239975 134.27199,73.072 136.288,73.072 C138.976013,73.072 141.483988,73.371997 143.812,73.972 C146.140012,74.572003 148.179991,75.5079936 149.932,76.78 C151.684009,78.0520064 153.087995,79.6959899 154.144,81.712 C155.200005,83.7280101 155.799999,86.1519858 155.944,88.984 L152.776,88.984 Z M202.136,88.984 C202.04,86.775989 201.572004,84.8560082 200.732,83.224 C199.891996,81.5919918 198.752007,80.2240055 197.312,79.12 C195.871993,78.0159945 194.15601,77.1880028 192.164,76.636 C190.17199,76.0839972 188.000012,75.808 185.648,75.808 C184.207993,75.808 182.660008,75.9759983 181.004,76.312 C179.347992,76.6480017 177.812007,77.2359958 176.396,78.076 C174.979993,78.9160042 173.816005,80.0439929 172.904,81.46 C171.991995,82.8760071 171.536,84.6399894 171.536,86.752 C171.536,88.8160103 172.039995,90.4959935 173.048,91.792 C174.056005,93.0880065 175.375992,94.131996 177.008,94.924 C178.640008,95.716004 180.511989,96.3519976 182.624,96.832 C184.736011,97.3120024 186.871989,97.7679978 189.032,98.2 C191.240011,98.6320022 193.38799,99.147997 195.476,99.748 C197.56401,100.348003 199.435992,101.163995 201.092,102.196 C202.748008,103.228005 204.079995,104.571992 205.088,106.228 C206.096005,107.884008 206.6,109.959988 206.6,112.456 C206.6,115.144013 206.024006,117.399991 204.872,119.224 C203.719994,121.048009 202.268009,122.535994 200.516,123.688 C198.763991,124.840006 196.820011,125.667997 194.684,126.172 C192.547989,126.676003 190.49601,126.928 188.528,126.928 C185.503985,126.928 182.672013,126.604003 180.032,125.956 C177.391987,125.307997 175.08801,124.252007 173.12,122.788 C171.15199,121.323993 169.604006,119.440012 168.476,117.136 C167.347994,114.831988 166.808,112.024017 166.856,108.712 L170.024,108.712 C169.879999,111.544014 170.287995,113.93199 171.248,115.876 C172.208005,117.82001 173.539991,119.415994 175.244,120.664 C176.948009,121.912006 178.951988,122.811997 181.256,123.364 C183.560012,123.916003 185.983987,124.192 188.528,124.192 C190.064008,124.192 191.707991,124.000002 193.46,123.616 C195.212009,123.231998 196.819993,122.584005 198.284,121.672 C199.748007,120.759995 200.971995,119.560007 201.956,118.072 C202.940005,116.583993 203.432,114.712011 203.432,112.456 C203.432,110.295989 202.928005,108.532007 201.92,107.164 C200.911995,105.795993 199.580008,104.692004 197.924,103.852 C196.267992,103.011996 194.39601,102.340003 192.308,101.836 C190.21999,101.331997 188.072011,100.864002 185.864,100.432 C183.703989,99.9999978 181.568011,99.4960029 179.456,98.92 C177.343989,98.3439971 175.472008,97.5640049 173.84,96.58 C172.207992,95.5959951 170.888005,94.3240078 169.88,92.764 C168.871995,91.2039922 168.368,89.2000122 168.368,86.752 C168.368,84.3039878 168.883995,82.2040088 169.916,80.452 C170.948005,78.6999912 172.291992,77.2840054 173.948,76.204 C175.604008,75.1239946 177.46399,74.3320025 179.528,73.828 C181.59201,73.3239975 183.63199,73.072 185.648,73.072 C188.336013,73.072 190.843988,73.371997 193.172,73.972 C195.500012,74.572003 197.539991,75.5079936 199.292,76.78 C201.044009,78.0520064 202.447995,79.6959899 203.504,81.712 C204.560005,83.7280101 205.159999,86.1519858 205.304,88.984 L202.136,88.984 Z" fill="#1072B8" sketch:type="MSShapeGroup"></path>
                <circle id="Oval-1-copy" fill="#1072B8" sketch:type="MSShapeGroup" cx="272" cy="30" r="30"></circle>
                <path d="M280.212891,21.796875 C280.212891,23.6198008 279.701828,25.1106713 278.679688,26.2695312 C277.657547,27.4283912 276.208994,28.203123 274.333984,28.59375 L274.333984,28.75 C276.625663,29.0364598 278.324864,29.7656191 279.431641,30.9375 C280.538417,32.1093809 281.091797,33.6458238 281.091797,35.546875 C281.091797,38.2682428 280.147796,40.3613208 278.259766,41.8261719 C276.371735,43.2910229 273.689471,44.0234375 270.212891,44.0234375 C268.702466,44.0234375 267.319017,43.9095063 266.0625,43.6816406 C264.805983,43.4537749 263.585292,43.0533883 262.400391,42.4804688 L262.400391,39.3945312 C263.637376,40.0065135 264.955722,40.4720036 266.355469,40.7910156 C267.755215,41.1100276 269.080072,41.2695312 270.330078,41.2695312 C275.264999,41.2695312 277.732422,39.3359568 277.732422,35.46875 C277.732422,32.005191 275.011095,30.2734375 269.568359,30.2734375 L266.755859,30.2734375 L266.755859,27.4804688 L269.607422,27.4804688 C271.833996,27.4804688 273.598301,26.9889372 274.900391,26.0058594 C276.20248,25.0227815 276.853516,23.6588629 276.853516,21.9140625 C276.853516,20.5208264 276.375005,19.4270873 275.417969,18.6328125 C274.460933,17.8385377 273.162118,17.4414062 271.521484,17.4414062 C270.271478,17.4414062 269.093104,17.6106754 267.986328,17.9492188 C266.879552,18.2877621 265.616544,18.9127559 264.197266,19.8242188 L262.556641,17.6367188 C263.728521,16.712235 265.079419,15.9863308 266.609375,15.4589844 C268.139331,14.931638 269.750643,14.6679688 271.443359,14.6679688 C274.216811,14.6679688 276.371737,15.302728 277.908203,16.5722656 C279.444669,17.8418032 280.212891,19.5833223 280.212891,21.796875 L280.212891,21.796875 Z" id="3" fill="#71CFF7" sketch:type="MSShapeGroup"></path>
            </g>
        </g>
    </g>
</svg>