<?xml version="1.0" encoding="UTF-8" standalone="no"?>
<svg width="50px" height="50px" viewBox="0 0 50 50" version="1.1" xmlns="http://www.w3.org/2000/svg" xmlns:xlink="http://www.w3.org/1999/xlink" xmlns:sketch="http://www.bohemiancoding.com/sketch/ns">
    <title>Artboard 1</title>
    <description>Created with Sketch (http://www.bohemiancoding.com/sketch)</description>
    <defs></defs>
    <g id="Page-1" stroke="none" stroke-width="1" fill="none" fill-rule="evenodd" sketch:type="MSPage">
        <g id="Artboard-1" sketch:type="MSArtboardGroup" fill="#FFFFFF">
            <path d="M25,39 C17.2804,39 11,32.721 11,25 C11,17.2804 17.2818,11 25,11 C32.7182,11 39,17.2804 39,25 C39,32.721 32.7196,39 25,39 L25,39 L25,39 Z M36.8076,26.9166 C36.3988,26.7864 33.106,25.805 29.3596,26.4056 C30.9234,30.7036 31.5604,34.2036 31.6808,34.9316 C34.3646,33.1186 36.2742,30.2444 36.8076,26.9166 C36.8076,26.9166 36.2742,30.2444 36.8076,26.9166 L36.8076,26.9166 L36.8076,26.9166 Z M29.6704,36.0264 C29.4926,34.9778 28.7996,31.321 27.121,26.9572 C27.0944,26.967 27.0678,26.9754 27.0412,26.9852 C20.296,29.3358 17.874,34.0132 17.6598,34.4528 C19.6884,36.0334 22.2364,36.977 25,36.977 C26.6576,36.977 28.2354,36.6368 29.6704,36.0264 C29.6704,36.0264 28.2354,36.6368 29.6704,36.0264 L29.6704,36.0264 L29.6704,36.0264 Z M16.1156,33.015 C16.3858,32.5516 19.6688,27.1168 25.8358,25.1232 C25.9912,25.0728 26.1494,25.0252 26.3062,24.9804 C26.0066,24.3014 25.6804,23.6196 25.3374,22.9504 C19.3664,24.7382 13.5704,24.6626 13.0482,24.6514 C13.0454,24.7732 13.0426,24.895 13.0426,25.0168 C13.0412,28.0898 14.206,30.894 16.1156,33.015 C16.1156,33.015 14.206,30.894 16.1156,33.015 L16.1156,33.015 L16.1156,33.015 Z M13.2946,22.5696 C13.8294,22.5766 18.756,22.599 24.349,21.1122 C22.3666,17.5898 20.2316,14.6274 19.9152,14.1962 C16.5706,15.774 14.0688,18.8582 13.2946,22.5696 C13.2946,22.5696 14.0688,18.8582 13.2946,22.5696 L13.2946,22.5696 L13.2946,22.5696 Z M22.1986,13.3912 C22.529,13.8336 24.7018,16.7904 26.6604,20.3912 C30.9122,18.7966 32.7126,16.3788 32.9282,16.0722 C30.817,14.199 28.0408,13.058 25.0014,13.058 C24.0354,13.0594 23.0974,13.1756 22.1986,13.3912 C22.1986,13.3912 23.0974,13.1756 22.1986,13.3912 L22.1986,13.3912 L22.1986,13.3912 Z M34.2568,17.4554 C34.0034,17.797 32,20.366 27.5788,22.1706 C27.856,22.739 28.1234,23.3186 28.3712,23.9024 C28.458,24.1082 28.5448,24.314 28.6288,24.5184 C32.609,24.0186 36.5626,24.8208 36.956,24.9034 C36.9294,22.0838 35.9228,19.491 34.2568,17.4554 C34.2568,17.4554 35.9228,19.491 34.2568,17.4554 L34.2568,17.4554 L34.2568,17.4554 Z" id="Dribbble_Icon" sketch:type="MSShapeGroup"></path>
        </g>
    </g>
</svg>