<?xml version="1.0" encoding="UTF-8" standalone="no"?>
<svg width="30px" height="30px" viewBox="0 0 30 30" version="1.1" xmlns="http://www.w3.org/2000/svg" xmlns:xlink="http://www.w3.org/1999/xlink" xmlns:sketch="http://www.bohemiancoding.com/sketch/ns">
    <title>dribbble_icon_small</title>
    <description>Created with Sketch (http://www.bohemiancoding.com/sketch)</description>
    <defs></defs>
    <g id="Page-2" stroke="none" stroke-width="1" fill="none" fill-rule="evenodd" sketch:type="MSPage">
        <g id="Artboard-1" sketch:type="MSArtboardGroup" transform="translate(-30.000000, 0.000000)" fill="#FFFFFF">
            <g id="Social" sketch:type="MSLayerGroup">
                <path d="M45,26 C38.9346,26 34,21.0665 34,15 C34,8.9346 38.9357,4 45,4 C51.0643,4 56,8.9346 56,15 C56,21.0665 51.0654,26 45,26 L45,26 L45,26 L45,26 Z M54.2774,16.5059 C53.9562,16.4036 51.369,15.6325 48.4254,16.1044 C49.6541,19.4814 50.1546,22.2314 50.2492,22.8034 C52.3579,21.3789 53.8583,19.1206 54.2774,16.5059 C54.2774,16.5059 53.8583,19.1206 54.2774,16.5059 L54.2774,16.5059 L54.2774,16.5059 Z M48.6696,23.6636 C48.5299,22.8397 47.9854,19.9665 46.6665,16.5378 C46.6456,16.5455 46.6247,16.5521 46.6038,16.5598 C41.304,18.4067 39.401,22.0818 39.2327,22.4272 C40.8266,23.6691 42.8286,24.4105 45,24.4105 C46.3024,24.4105 47.5421,24.1432 48.6696,23.6636 C48.6696,23.6636 47.5421,24.1432 48.6696,23.6636 L48.6696,23.6636 L48.6696,23.6636 Z M38.0194,21.2975 C38.2317,20.9334 40.8112,16.6632 45.6567,15.0968 C45.7788,15.0572 45.9031,15.0198 46.0263,14.9846 C45.7909,14.4511 45.5346,13.9154 45.2651,13.3896 C40.5736,14.7943 36.0196,14.7349 35.6093,14.7261 C35.6071,14.8218 35.6049,14.9175 35.6049,15.0132 C35.6038,17.4277 36.519,19.631 38.0194,21.2975 C38.0194,21.2975 36.519,19.631 38.0194,21.2975 L38.0194,21.2975 L38.0194,21.2975 Z M35.8029,13.0904 C36.2231,13.0959 40.094,13.1135 44.4885,11.9453 C42.9309,9.1777 41.2534,6.8501 41.0048,6.5113 C38.3769,7.751 36.4112,10.1743 35.8029,13.0904 C35.8029,13.0904 36.4112,10.1743 35.8029,13.0904 L35.8029,13.0904 L35.8029,13.0904 Z M42.7989,5.8788 C43.0585,6.2264 44.7657,8.5496 46.3046,11.3788 C49.6453,10.1259 51.0599,8.2262 51.2293,7.9853 C49.5705,6.5135 47.3892,5.617 45.0011,5.617 C44.2421,5.6181 43.5051,5.7094 42.7989,5.8788 C42.7989,5.8788 43.5051,5.7094 42.7989,5.8788 L42.7989,5.8788 L42.7989,5.8788 Z M52.2732,9.0721 C52.0741,9.3405 50.5,11.359 47.0262,12.7769 C47.244,13.2235 47.4541,13.6789 47.6488,14.1376 C47.717,14.2993 47.7852,14.461 47.8512,14.6216 C50.9785,14.2289 54.0849,14.8592 54.394,14.9241 C54.3731,12.7087 53.5822,10.6715 52.2732,9.0721 C52.2732,9.0721 53.5822,10.6715 52.2732,9.0721 L52.2732,9.0721 L52.2732,9.0721 Z" id="Shape" sketch:type="MSShapeGroup"></path>
            </g>
        </g>
    </g>
</svg>