<?xml version="1.0" encoding="UTF-8" standalone="no"?>
<svg width="50px" height="50px" viewBox="0 0 50 50" version="1.1" xmlns="http://www.w3.org/2000/svg" xmlns:xlink="http://www.w3.org/1999/xlink" xmlns:sketch="http://www.bohemiancoding.com/sketch/ns">
    <title>Artboard 1</title>
    <description>Created with Sketch (http://www.bohemiancoding.com/sketch)</description>
    <defs></defs>
    <g id="Page-1" stroke="none" stroke-width="1" fill="none" fill-rule="evenodd" sketch:type="MSPage">
        <g id="Artboard-1" sketch:type="MSArtboardGroup" fill="#FFFFFF">
            <path d="M30.9700022,24 L27.0100603,24 L27.0100602,38 L22.0733032,38 L22.0733031,24 L19.0008432,24 L19.0008432,22.5534668 L19.0008432,20.0013428 L22.0733031,20.0013428 C22.0733031,20.0013428 21.9685312,17.034736 21.9691742,15.8971114 C21.9703712,13.7770996 22.4087932,12.5893703 24.0994352,11.6770762 C24.8940902,11.2479201 25.7527452,11.0495366 26.6340652,11.0225457 C27.9953792,10.9834088 29.3593592,11.0077006 30.7206722,11.0050015 C30.7833382,11.0050015 30.8446702,11.018497 30.9286692,11.0279439 C30.9420022,11.1399563 30.9620022,11.2425219 30.9633352,11.3464371 C30.9646692,12.67979 30.9700022,15.9933472 30.9700022,15.9933472 C30.9700022,15.9933472 28.6497068,15.9704049 27.9510498,15.9933472 C27.6763878,16.0014445 27.0100603,15.9024841 27.0100603,16.701416 C27.0100593,17.7217608 27.0100603,18.9338507 27.0100603,20.0013428 C28.2727083,20.0013428 29.6046882,20.0013428 30.9700022,20.0013428 C30.8660032,21.0701844 30.9700022,24 30.9700022,24 Z" id="Facebook_Icon" sketch:type="MSShapeGroup"></path>
        </g>
    </g>
</svg>