<?xml version="1.0" encoding="UTF-8" standalone="no"?>
<svg width="30px" height="30px" viewBox="0 0 30 30" version="1.1" xmlns="http://www.w3.org/2000/svg" xmlns:xlink="http://www.w3.org/1999/xlink" xmlns:sketch="http://www.bohemiancoding.com/sketch/ns">
    <title>facebook_icon_small</title>
    <description>Created with Sketch (http://www.bohemiancoding.com/sketch)</description>
    <defs></defs>
    <g id="Page-2" stroke="none" stroke-width="1" fill="none" fill-rule="evenodd" sketch:type="MSPage">
        <g id="Artboard-1" sketch:type="MSArtboardGroup" transform="translate(-120.000000, 0.000000)" fill="#39363D">
            <g id="Social" sketch:type="MSLayerGroup">
                <path d="M139.777003,13.7767632 C139.747004,14.0836603 139.717004,14.0023608 139.701005,14.3102575 C139.690005,14.5511767 139.604204,14.7044519 139.344208,14.6974542 C138.573219,14.6784606 137.856031,14.6974542 137.058043,14.6974542 C137.058043,18.0273377 137.007044,21.6691169 137.007044,25 L133.226379,25 C133.217379,24.8660449 133.226379,24.7376786 133.226379,24.5947266 C133.225379,21.5327533 133.21738,18.4454449 133.226379,15.3854709 C133.226379,15.1065644 133.00718,14.6974542 132.716106,14.6974542 L131.000131,14.6974542 L131.000131,13.5581236 C131.000131,12.6904145 131.015131,13.0239229 131.000131,12.1562138 C130.996131,11.8973006 131.000131,11.6676613 131.361267,11.6676613 C131.829315,11.6676613 132.248113,11.6526663 132.716106,11.6676613 C132.923103,11.674659 133.226379,11.4677512 133.226379,11.2668186 C133.230379,10.4300991 133.225897,9.47017482 133.226379,8.62748994 C133.227277,7.05711082 133.556094,6.17731134 134.824076,5.50153793 C135.420067,5.18364452 136.064057,5.03669379 136.725048,5.01670049 C137.746033,4.98771022 138.769018,5.00570418 139.790003,5.00370485 C139.837002,5.00370485 139.883002,5.0137015 139.946001,5.02069915 C139.956001,5.10367133 139.971,5.17964586 139.972,5.25662005 C139.973,6.24428888 139.967,7.23195771 139.977,8.21862687 C139.979,8.43855313 140.191997,8.76756705 139.977001,8.76256872 C139.453008,8.74857341 138.213842,8.74557442 137.68985,8.76256872 C137.483853,8.76856671 137.058043,8.62748994 137.058043,9.21929135 C137.058042,9.9751023 137.058043,10.8769265 137.058043,11.6676613 C138.005029,11.6676613 138.953015,11.6676613 139.977,11.6676613 C139.899001,12.4593958 139.850002,13.0440089 139.777003,13.7767632 Z" id="Shape" sketch:type="MSShapeGroup"></path>
            </g>
        </g>
    </g>
</svg>