<?xml version="1.0" encoding="UTF-8" standalone="no"?>
<svg width="308px" height="180px" viewBox="0 0 308 180" version="1.1" xmlns="http://www.w3.org/2000/svg" xmlns:xlink="http://www.w3.org/1999/xlink" xmlns:sketch="http://www.bohemiancoding.com/sketch/ns">
    <title>Untitled 1</title>
    <description>Created with Sketch (http://www.bohemiancoding.com/sketch)</description>
    <defs></defs>
    <g id="Page-1" stroke="none" stroke-width="1" fill="none" fill-rule="evenodd" sketch:type="MSPage">
        <g id="Artboard-1" sketch:type="MSArtboardGroup" transform="translate(-256.000000, -103.000000)">
            <g id="HTML" sketch:type="MSLayerGroup" transform="translate(262.000000, 103.000000)">
                <rect id="Rectangle-1" stroke="#E24E30" stroke-width="4" sketch:type="MSShapeGroup" x="0" y="30" width="272" height="140" rx="6"></rect>
                <path d="M47.9395752,74 L47.9395752,97.1329346 L81.0062256,97.1329346 L81.0062256,74 L84,74 L84,126 L81.0062256,126 L81.0062256,100 L47.9395752,100 L47.9395752,126 L45,126 L45,74 L47.9395752,74 Z M92,74 L132,74 L132,76.9621582 L112.954102,76.9621582 L112.954102,126 L109.999268,126 L109.999268,76.9621582 L92,76.9621582 L92,74 Z M144.519766,74 L164.535871,122.431373 L184.480234,74 L189,74 L189,126 L186.005981,126 L186.005981,77.7998047 L166.185944,126 L163.029283,126 L142.93103,77.9327731 L142.93103,126 L140,126 L140,74 L144.519766,74 Z M204.932,74.0484619 L204.932,123.098143 L233.955322,123.098143 L233.955322,125.911498 L202.07251,125.911498 L202.07251,74.0484619 L204.932,74.0484619 Z" fill="#E24E30" sketch:type="MSShapeGroup"></path>
                <path d="M272,60 C288.568543,60 302,46.5685433 302,30 C302,13.4314567 288.568543,0 272,0 C255.431457,0 242,13.4314567 242,30 C242,46.5685433 255.431457,60 272,60 Z" id="Oval-1" fill="#E24E30" sketch:type="MSShapeGroup"></path>
                <path d="M272.144531,25.9863281 C275.152359,25.9863281 277.518872,26.7317634 279.244141,28.2226562 C280.96941,29.7135491 281.832031,31.7545443 281.832031,34.3457031 C281.832031,37.3014471 280.891285,39.6191322 279.009766,41.2988281 C277.128246,42.978524 274.533871,43.8183594 271.226562,43.8183594 C268.010401,43.8183594 265.555998,43.3040416 263.863281,42.2753906 L263.863281,39.1503906 C264.774744,39.7363311 265.907545,40.1953108 267.261719,40.5273438 C268.615892,40.8593767 269.950514,41.0253906 271.265625,41.0253906 C273.557303,41.0253906 275.337884,40.4850314 276.607422,39.4042969 C277.876959,38.3235623 278.511719,36.7610779 278.511719,34.7167969 C278.511719,30.732402 276.070337,28.7402344 271.1875,28.7402344 C269.950515,28.7402344 268.296885,28.9290346 266.226562,29.3066406 L264.546875,28.2324219 L265.621094,14.8730469 L279.820312,14.8730469 L279.820312,17.8613281 L268.394531,17.8613281 L267.671875,26.4355469 C269.169278,26.1360662 270.660149,25.9863281 272.144531,25.9863281 L272.144531,25.9863281 Z" id="5" fill="#FCB095" sketch:type="MSShapeGroup"></path>
            </g>
        </g>
    </g>
</svg>