<?xml version="1.0" encoding="UTF-8" standalone="no"?>
<svg width="30px" height="30px" viewBox="0 0 30 30" version="1.1" xmlns="http://www.w3.org/2000/svg" xmlns:xlink="http://www.w3.org/1999/xlink" xmlns:sketch="http://www.bohemiancoding.com/sketch/ns">
    <title>instagram_icon_small</title>
    <description>Created with Sketch (http://www.bohemiancoding.com/sketch)</description>
    <defs></defs>
    <g id="Page-2" stroke="none" stroke-width="1" fill="none" fill-rule="evenodd" sketch:type="MSPage">
        <g id="Artboard-1" sketch:type="MSArtboardGroup" transform="translate(-90.000000, 0.000000)" fill="#FFF">
            <g id="Social" sketch:type="MSLayerGroup">
                <path d="M99.6153846,13.4691444 L96.5654109,13.4691444 L96.5654109,20.0205282 C96.5654109,21.7491312 98.2474468,23.4095647 99.9831449,23.4095647 L110.002368,23.4095647 C111.737014,23.4095647 113.452524,21.7491312 113.452524,20.0205282 L113.452524,13.4691444 L110.384615,13.4691444 L110.384615,15.7692308 C110.384615,18.7430719 107.973841,21.1538462 105,21.1538462 C102.026159,21.1538462 99.6153846,18.7430719 99.6153846,15.7692308 L99.6153846,13.4691444 L99.6153846,13.4691444 Z M99.9986843,5 C97.2430398,5 95,7.23286662 95,9.97736604 L95,20.0215812 C95,22.7660806 97.2419873,25 99.9986843,25 L110.002368,25 C112.758013,25 115,22.7671334 115,20.0215812 L115,9.97736604 C115,7.23286662 112.758013,5 110.002368,5 L99.9986843,5 Z M105,18.8461538 C106.699338,18.8461538 108.076923,17.4685685 108.076923,15.7692308 C108.076923,14.069893 106.699338,12.6923077 105,12.6923077 C103.300662,12.6923077 101.923077,14.069893 101.923077,15.7692308 C101.923077,17.4685685 103.300662,18.8461538 105,18.8461538 Z M109.836634,7.30769231 C109.289607,7.30769231 108.846154,7.74889506 108.846154,8.29817249 L108.846154,10.163366 C108.846154,10.7103931 109.287357,11.1538462 109.836634,11.1538462 L111.701828,11.1538462 C112.248855,11.1538462 112.692308,10.7126434 112.692308,10.163366 L112.692308,8.29817249 C112.692308,7.75114539 112.251105,7.30769231 111.701828,7.30769231 L109.836634,7.30769231 Z" id="Shape" sketch:type="MSShapeGroup"></path>
            </g>
        </g>
    </g>
</svg>