<?xml version="1.0" encoding="UTF-8" standalone="no"?>
<svg width="50px" height="50px" viewBox="0 0 50 50" version="1.1" xmlns="http://www.w3.org/2000/svg" xmlns:xlink="http://www.w3.org/1999/xlink" xmlns:sketch="http://www.bohemiancoding.com/sketch/ns">
    <title>Artboard 1</title>
    <description>Created with Sketch (http://www.bohemiancoding.com/sketch)</description>
    <defs></defs>
    <g id="Page-1" stroke="none" stroke-width="1" fill="none" fill-rule="evenodd" sketch:type="MSPage">
        <g id="Artboard-1" sketch:type="MSArtboardGroup" fill="#FFFFFF">
            <path d="M18,23.0098877 L14.035034,23.0098877 L14.035034,31.5266867 C14.035034,33.7738706 16.221681,35.9324341 18.478088,35.9324341 L31.503078,35.9324341 C33.758118,35.9324341 35.988281,33.7738706 35.988281,31.5266867 L35.988281,23.0098877 L32,23.0098877 L32,26 C32,29.8659934 28.865993,33 25,33 C21.134007,33 18,29.8659934 18,26 L18,23.0098877 L18,23.0098877 Z M18.49829,12 C14.915952,12 12,14.9027266 12,18.4705759 L12,31.5280556 C12,35.0959048 14.914583,38 18.49829,38 L31.503079,38 C35.085417,38 38,35.0972734 38,31.5280556 L38,18.4705759 C38,14.9027266 35.085417,12 31.503079,12 L18.49829,12 L18.49829,12 Z M25,30 C27.209139,30 29,28.2091391 29,26 C29,23.7908609 27.209139,22 25,22 C22.790861,22 21,23.7908609 21,26 C21,28.2091391 22.790861,30 25,30 L25,30 Z M30.999807,15 C30.447629,15 30,15.4437166 30,15.9998075 L30,19.0001925 C30,19.5523709 30.443717,20 30.999807,20 L34.000193,20 C34.552371,20 35,19.5562834 35,19.0001925 L35,15.9998075 C35,15.4476291 34.556283,15 34.000193,15 L30.999807,15 L30.999807,15 Z" id="Instagram" sketch:type="MSShapeGroup"></path>
        </g>
    </g>
</svg>