<?xml version="1.0" encoding="UTF-8" standalone="no"?>
<svg width="308px" height="180px" viewBox="0 0 308 180" version="1.1" xmlns="http://www.w3.org/2000/svg" xmlns:xlink="http://www.w3.org/1999/xlink" xmlns:sketch="http://www.bohemiancoding.com/sketch/ns">
    <title>Untitled 1</title>
    <description>Created with Sketch (http://www.bohemiancoding.com/sketch)</description>
    <defs></defs>
    <g id="Page-1" stroke="none" stroke-width="1" fill="none" fill-rule="evenodd" sketch:type="MSPage">
        <g id="Artboard-1" sketch:type="MSArtboardGroup" transform="translate(-898.000000, -103.000000)">
            <g id="JS" sketch:type="MSLayerGroup" transform="translate(904.000000, 103.000000)">
                <rect id="Rectangle-1" stroke="#1B2B3B" stroke-width="4" sketch:type="MSShapeGroup" x="0" y="30" width="272" height="140" rx="6"></rect>
                <path d="M272,60 C288.568543,60 302,46.5685433 302,30 C302,13.4314567 288.568543,0 272,0 C255.431457,0 242,13.4314567 242,30 C242,46.5685433 255.431457,60 272,60 Z" id="Oval-1-copy" fill="#1B2B3B" sketch:type="MSShapeGroup"></path>
                <path d="M258.987305,46.7675781 C257.885737,46.7675781 257.018558,46.6093766 256.385742,46.2929688 L256.385742,43.7441406 C257.217778,43.9785168 258.084956,44.0957031 258.987305,44.0957031 C260.147467,44.0957031 261.029294,43.7441441 261.632812,43.0410156 C262.236331,42.3378871 262.538086,41.3242254 262.538086,40 L262.538086,14.3007812 L265.526367,14.3007812 L265.526367,39.7539062 C265.526367,41.9804799 264.963873,43.7060486 263.838867,44.9306641 C262.713862,46.1552796 261.09669,46.7675781 258.987305,46.7675781 Z M286.848633,33.1621094 C286.848633,35.4238394 286.028329,37.1874937 284.387695,38.453125 C282.747062,39.7187563 280.520522,40.3515625 277.708008,40.3515625 C274.661118,40.3515625 272.317391,39.9589883 270.676758,39.1738281 L270.676758,36.2910156 C271.731451,36.7363304 272.879877,37.0878893 274.12207,37.3457031 C275.364264,37.6035169 276.59472,37.7324219 277.813477,37.7324219 C279.805674,37.7324219 281.305659,37.354496 282.313477,36.5986328 C283.321294,35.8427697 283.825195,34.7910224 283.825195,33.4433594 C283.825195,32.5527299 283.646486,31.823245 283.289062,31.2548828 C282.931639,30.6865206 282.333989,30.1621118 281.496094,29.6816406 C280.658199,29.2011695 279.383798,28.656253 277.672852,28.046875 C275.282215,27.191402 273.574224,26.1777402 272.548828,25.0058594 C271.523432,23.8339785 271.010742,22.3046969 271.010742,20.4179688 C271.010742,18.4374901 271.754875,16.861334 273.243164,15.6894531 C274.731453,14.5175723 276.700183,13.9316406 279.149414,13.9316406 C281.704114,13.9316406 284.0537,14.4003859 286.198242,15.3378906 L285.266602,17.9394531 C283.145497,17.0488237 281.083018,16.6035156 279.079102,16.6035156 C277.497062,16.6035156 276.260747,16.943356 275.370117,17.6230469 C274.479488,18.3027378 274.03418,19.2460877 274.03418,20.453125 C274.03418,21.3437545 274.198241,22.0732393 274.526367,22.6416016 C274.854494,23.2099638 275.408199,23.7314429 276.1875,24.2060547 C276.966801,24.6806664 278.159172,25.2050753 279.764648,25.7792969 C282.459974,26.7402392 284.314448,27.7714789 285.328125,28.8730469 C286.341802,29.9746149 286.848633,31.4042881 286.848633,33.1621094 Z" fill="#97BAD2" sketch:type="MSShapeGroup"></path>
                <path d="M39.095,111.424 C40.4776736,111.424 41.5373296,111.197336 42.274,110.744 C43.0106703,110.290664 43.5376651,109.71267 43.855,109.01 C44.1723349,108.30733 44.3479998,107.519671 44.382,106.647 C44.4160002,105.774329 44.433,104.918671 44.433,104.08 L44.433,87.862 L45.929,87.862 L45.929,104.59 C45.929,105.066002 45.9233334,105.598664 45.912,106.188 C45.9006666,106.777336 45.8326673,107.37233 45.708,107.973 C45.5833327,108.57367 45.390668,109.15733 45.13,109.724 C44.869332,110.290669 44.4896692,110.794998 43.991,111.237 C43.4923308,111.679002 42.8633371,112.035999 42.104,112.308 C41.3446629,112.580001 40.398339,112.716 39.265,112.716 C37.6329918,112.716 36.352338,112.455336 35.423,111.934 C34.493662,111.412664 33.8080022,110.744004 33.366,109.928 C32.9239978,109.111996 32.6520005,108.216672 32.55,107.242 C32.4479995,106.267328 32.397,105.326671 32.397,104.42 L33.893,104.42 C33.8249997,105.326671 33.8363329,106.199329 33.927,107.038 C34.0176671,107.876671 34.2443315,108.618997 34.607,109.265 C34.9696685,109.911003 35.5079964,110.432331 36.222,110.829 C36.9360036,111.225669 37.8936607,111.424 39.095,111.424 Z M60.217,87.862 L61.849,87.862 L71.437,112.138 L69.839,112.138 L66.779,104.352 L55.151,104.352 L52.057,112.138 L50.459,112.138 L60.217,87.862 Z M66.303,103.06 L61.101,89.324 L61.033,89.324 L55.627,103.06 L66.303,103.06 Z M81.815,110.846 L81.883,110.846 L90.281,87.862 L91.777,87.862 L82.699,112.138 L80.965,112.138 L71.921,87.862 L73.485,87.862 L81.815,110.846 Z M102.019,87.862 L103.651,87.862 L113.239,112.138 L111.641,112.138 L108.581,104.352 L96.953,104.352 L93.859,112.138 L92.261,112.138 L102.019,87.862 Z M108.105,103.06 L102.903,89.324 L102.835,89.324 L97.429,103.06 L108.105,103.06 Z M133.817,94.798 C133.771666,93.7553281 133.550669,92.8486705 133.154,92.078 C132.757331,91.3073295 132.219003,90.6613359 131.539,90.14 C130.858997,89.6186641 130.048671,89.227668 129.108,88.967 C128.167329,88.706332 127.141672,88.576 126.031,88.576 C125.350997,88.576 124.620004,88.6553325 123.838,88.814 C123.055996,88.9726675 122.33067,89.2503313 121.662,89.647 C120.99333,90.0436686 120.443669,90.57633 120.013,91.245 C119.582331,91.91367 119.367,92.7466617 119.367,93.744 C119.367,94.7186715 119.604998,95.5119969 120.081,96.124 C120.557002,96.7360031 121.180329,97.2289981 121.951,97.603 C122.721671,97.9770019 123.605662,98.2773322 124.603,98.504 C125.600338,98.7306678 126.608995,98.945999 127.629,99.15 C128.671672,99.354001 129.685995,99.5976652 130.672,99.881 C131.658005,100.164335 132.541996,100.549664 133.324,101.037 C134.106004,101.524336 134.734998,102.158996 135.211,102.941 C135.687002,103.723004 135.925,104.703327 135.925,105.882 C135.925,107.15134 135.653003,108.216662 135.109,109.078 C134.564997,109.939338 133.879337,110.641997 133.052,111.186 C132.224663,111.730003 131.306672,112.120999 130.298,112.359 C129.289328,112.597001 128.320338,112.716 127.391,112.716 C125.962993,112.716 124.625673,112.563002 123.379,112.257 C122.132327,111.950998 121.044338,111.452337 120.115,110.761 C119.185662,110.069663 118.454669,109.180005 117.922,108.092 C117.389331,107.003995 117.134333,105.678008 117.157,104.114 L118.653,104.114 C118.585,105.45134 118.777664,106.578995 119.231,107.497 C119.684336,108.415005 120.313329,109.168664 121.118,109.758 C121.922671,110.347336 122.868995,110.772332 123.957,111.033 C125.045005,111.293668 126.189661,111.424 127.391,111.424 C128.116337,111.424 128.892663,111.333334 129.72,111.152 C130.547337,110.970666 131.306663,110.664669 131.998,110.234 C132.689337,109.803331 133.267331,109.23667 133.732,108.534 C134.196669,107.83133 134.429,106.947339 134.429,105.882 C134.429,104.861995 134.191002,104.029003 133.715,103.383 C133.238998,102.736997 132.610004,102.215669 131.828,101.819 C131.045996,101.422331 130.162005,101.105001 129.176,100.867 C128.189995,100.628999 127.175672,100.408001 126.133,100.204 C125.112995,99.999999 124.104338,99.7620014 123.107,99.49 C122.109662,99.2179986 121.225671,98.849669 120.455,98.385 C119.684329,97.920331 119.061002,97.3196703 118.585,96.583 C118.108998,95.8463296 117.871,94.9000058 117.871,93.744 C117.871,92.5879942 118.114664,91.5963375 118.602,90.769 C119.089336,89.9416625 119.723996,89.2730025 120.506,88.763 C121.288004,88.2529974 122.166328,87.8790012 123.141,87.641 C124.115672,87.4029988 125.078995,87.284 126.031,87.284 C127.30034,87.284 128.484661,87.4256652 129.584,87.709 C130.683339,87.9923347 131.646663,88.4343303 132.474,89.035 C133.301337,89.6356697 133.964331,90.4119952 134.463,91.364 C134.961669,92.3160048 135.245,93.46066 135.313,94.798 L133.817,94.798 Z M141.475,100 C141.475,98.2319912 141.735664,96.5716744 142.257,95.019 C142.778336,93.4663256 143.531995,92.1176724 144.518,90.973 C145.504005,89.8283276 146.716659,88.9273366 148.156,88.27 C149.595341,87.6126634 151.221658,87.284 153.035,87.284 C154.463007,87.284 155.698328,87.4709981 156.741,87.845 C157.783672,88.2190019 158.661996,88.6836639 159.376,89.239 C160.090004,89.7943361 160.673664,90.4006634 161.127,91.058 C161.580336,91.7153366 161.925999,92.3329971 162.164,92.911 C162.402001,93.4890029 162.566333,93.9876646 162.657,94.407 C162.747667,94.8263354 162.793,95.0586664 162.793,95.104 L161.297,95.104 C161.138333,94.0839949 160.809669,93.1716707 160.311,92.367 C159.812331,91.5623293 159.189004,90.8766695 158.441,90.31 C157.692996,89.7433305 156.860005,89.3126681 155.942,89.018 C155.023995,88.7233319 154.055005,88.576 153.035,88.576 C151.448325,88.576 150.031673,88.8819969 148.785,89.494 C147.538327,90.1060031 146.484338,90.9276615 145.623,91.959 C144.761662,92.9903385 144.104336,94.1973264 143.651,95.58 C143.197664,96.9626736 142.971,98.4359922 142.971,100 C142.971,101.564008 143.197664,103.037326 143.651,104.42 C144.104336,105.802674 144.761662,107.009662 145.623,108.041 C146.484338,109.072338 147.538327,109.893997 148.785,110.506 C150.031673,111.118003 151.448325,111.424 153.035,111.424 C154.213673,111.424 155.318662,111.180336 156.35,110.693 C157.381338,110.205664 158.282329,109.559671 159.053,108.755 C159.823671,107.950329 160.441331,107.021005 160.906,105.967 C161.370669,104.912995 161.637,103.819339 161.705,102.686 L163.201,102.686 C163.064999,104.136674 162.708003,105.473994 162.13,106.698 C161.551997,107.922006 160.815338,108.981662 159.92,109.877 C159.024662,110.772338 157.987673,111.469331 156.809,111.968 C155.630327,112.466669 154.37234,112.716 153.035,112.716 C151.221658,112.716 149.595341,112.387337 148.156,111.73 C146.716659,111.072663 145.504005,110.171672 144.518,109.027 C143.531995,107.882328 142.778336,106.533674 142.257,104.981 C141.735664,103.428326 141.475,101.768009 141.475,100 Z M169.329,87.862 L179.461,87.862 C180.526339,87.862 181.523662,87.9696656 182.453,88.185 C183.382338,88.4003344 184.19833,88.7516642 184.901,89.239 C185.60367,89.7263358 186.153331,90.3666627 186.55,91.16 C186.946669,91.9533373 187.145,92.9393274 187.145,94.118 C187.145,95.7500082 186.686005,97.1269944 185.768,98.249 C184.849995,99.3710056 183.575008,100.067999 181.943,100.34 L181.943,100.408 C183.053672,100.544001 183.931997,100.838664 184.578,101.292 C185.224003,101.745336 185.705665,102.300663 186.023,102.958 C186.340335,103.615337 186.544333,104.340663 186.635,105.134 C186.725667,105.927337 186.771,106.720663 186.771,107.514 L186.771,108.908 C186.771,109.361336 186.793666,109.786331 186.839,110.183 C186.884334,110.579669 186.957999,110.947998 187.06,111.288 C187.162001,111.628002 187.303666,111.911332 187.485,112.138 L185.819,112.138 C185.501665,111.57133 185.326,110.908337 185.292,110.149 C185.258,109.389663 185.241,108.602004 185.241,107.786 C185.241,106.969996 185.207,106.159671 185.139,105.355 C185.071,104.550329 184.855668,103.83067 184.493,103.196 C184.130332,102.56133 183.558004,102.051335 182.776,101.666 C181.993996,101.280665 180.889007,101.088 179.461,101.088 L170.825,101.088 L170.825,112.138 L169.329,112.138 L169.329,87.862 Z M179.461,99.796 C180.345004,99.796 181.166663,99.6883344 181.926,99.473 C182.685337,99.2576656 183.336997,98.9233356 183.881,98.47 C184.425003,98.0166644 184.855665,97.4386702 185.173,96.736 C185.490335,96.0333298 185.649,95.1946715 185.649,94.22 C185.649,93.3133288 185.479002,92.5370032 185.139,91.891 C184.798998,91.2449968 184.345669,90.718002 183.779,90.31 C183.21233,89.901998 182.555004,89.6073342 181.807,89.426 C181.058996,89.2446658 180.277004,89.154 179.461,89.154 L170.825,89.154 L170.825,99.796 L179.461,99.796 Z M193.749,87.862 L195.245,87.862 L195.245,112.138 L193.749,112.138 L193.749,87.862 Z M202.529,87.862 L212.865,87.862 C213.545003,87.862 214.298663,87.9413325 215.126,88.1 C215.953337,88.2586675 216.723996,88.5816642 217.438,89.069 C218.152004,89.5563358 218.746998,90.2476622 219.223,91.143 C219.699002,92.0383378 219.937,93.2113261 219.937,94.662 C219.937,96.7926773 219.279673,98.4359942 217.965,99.592 C216.650327,100.748006 214.769012,101.326 212.321,101.326 L204.025,101.326 L204.025,112.138 L202.529,112.138 L202.529,87.862 Z M204.025,100.034 L212.559,100.034 C213.647005,100.034 214.570663,99.8696683 215.33,99.541 C216.089337,99.2123317 216.695664,98.7873359 217.149,98.266 C217.602336,97.7446641 217.930999,97.1666698 218.135,96.532 C218.339001,95.8973302 218.441,95.2626698 218.441,94.628 C218.441,94.1746644 218.373001,93.6363364 218.237,93.013 C218.100999,92.3896635 217.829002,91.7890029 217.421,91.211 C217.012998,90.6329971 216.44067,90.1456686 215.704,89.749 C214.96733,89.3523313 213.987006,89.154 212.763,89.154 L204.025,89.154 L204.025,100.034 Z M223.005,89.154 L223.005,87.862 L241.603,87.862 L241.603,89.154 L233.035,89.154 L233.035,112.138 L231.539,112.138 L231.539,89.154 L223.005,89.154 Z" id="JAVASCRIPT" fill="#1B2B3B" sketch:type="MSShapeGroup"></path>
            </g>
        </g>
    </g>
</svg>