<?xml version="1.0" encoding="UTF-8" standalone="no"?>
<svg width="30px" height="30px" viewBox="0 0 30 30" version="1.1" xmlns="http://www.w3.org/2000/svg" xmlns:xlink="http://www.w3.org/1999/xlink" xmlns:sketch="http://www.bohemiancoding.com/sketch/ns">
    <title>linkedin_icon_small</title>
    <description>Created with Sketch (http://www.bohemiancoding.com/sketch)</description>
    <defs></defs>
    <g id="Page-2" stroke="none" stroke-width="1" fill="none" fill-rule="evenodd" sketch:type="MSPage">
        <g id="Artboard-1" sketch:type="MSArtboardGroup" transform="translate(-60.000000, 0.000000)" fill="#39363D">
            <g id="Social" sketch:type="MSLayerGroup">
                <path d="M80.7320946,18.0254097 C80.7320946,16.2743381 80.1158415,15.0795593 78.5705045,15.0795593 C77.3920969,15.0795593 76.6888157,15.8860052 76.3818652,16.662671 C76.2689639,16.9402218 76.2419146,17.3309371 76.2419146,17.71927 L76.2419146,24.9939599 L72.5348918,24.9951511 L72.5348918,11.6608005 L75.9144084,11.6608005 L76.2419146,13.8133082 C76.2325062,13.8264115 76.2219217,13.8418971 76.2136893,13.8550004 L76.2419146,13.8144994 C76.8075973,12.9270516 77.8201811,11.6608005 80.0876161,11.6608005 C82.8948606,11.6608005 85,13.5226542 85,17.5251035 L85,24.9951511 L80.7320946,24.9951511 L80.7320946,18.0254097 Z M69.1843669,25 L65.2634364,25 L65,25 L65,11.6656493 L69.1843669,11.6656493 L69.1843669,25 Z M66.984965,9 C65.6865997,9 65,8.10371784 65,6.99937032 C65,5.8950228 65.8350169,5 67.1333822,5 C68.4317474,5 69.2667643,5.89502286 69.2667643,6.99937038 C69.2667643,8.1037179 68.4329235,9 67.1333822,9 L66.984965,9 Z" id="Shape" sketch:type="MSShapeGroup"></path>
            </g>
        </g>
    </g>
</svg>