<?xml version="1.0" encoding="UTF-8" standalone="no"?>
<svg width="50px" height="50px" viewBox="0 0 50 50" version="1.1" xmlns="http://www.w3.org/2000/svg" xmlns:xlink="http://www.w3.org/1999/xlink" xmlns:sketch="http://www.bohemiancoding.com/sketch/ns">
    <title>Artboard 1</title>
    <description>Created with Sketch (http://www.bohemiancoding.com/sketch)</description>
    <defs></defs>
    <g id="Page-1" stroke="none" stroke-width="1" fill="none" fill-rule="evenodd" sketch:type="MSPage">
        <g id="Artboard-1" sketch:type="MSArtboardGroup" fill="#FFFFFF">
            <path d="M30.284605,25.0954639 C28.870516,25.0954639 28.026579,26.0631252 27.658238,26.995053 C27.522757,27.3280885 27.490298,27.7969111 27.490298,28.262875 L27.490298,36.991837 L23.04187,36.9932663 L23.04187,20.9932663 L27.09729,20.9932663 L27.490298,23.5760785 C27.479007,23.5918012 27.466306,23.6103826 27.456427,23.6261053 L27.490298,23.5775079 C28.169117,22.5126517 29.384217,20.9932663 32.105139,20.9932663 C35.473833,20.9932663 38,23.2273203 38,28.0298931 L38,36.9932663 L33.0229491,36.9932663 L33.0229491,28.6302149 C33.0229491,26.5290893 32.13901,25.0954639 30.284605,25.0954639 Z M14,36.9990845 L14,20.9990845 L19.02124,20.9990845 L19.02124,36.9990845 L14.316124,36.9990845 L14,36.9990845 Z M16.5106205,13.0009155 C18.0385705,13.0009155 19.02124,14.1196941 19.02124,15.5001285 C19.02124,16.8805629 18.0399542,18.0009155 16.5106205,18.0009155 L16.3359589,18.0009155 C14.8080089,18.0009155 14,16.8805628 14,15.5001284 C14,14.119694 14.9826695,13.0009155 16.5106205,13.0009155 Z" id="Linkedin_Icon" sketch:type="MSShapeGroup"></path>
        </g>
    </g>
</svg>