<?xml version="1.0" encoding="UTF-8" standalone="no"?>
<svg width="60px" height="64px" viewBox="0 0 60 64" version="1.1" xmlns="http://www.w3.org/2000/svg" xmlns:xlink="http://www.w3.org/1999/xlink" xmlns:sketch="http://www.bohemiancoding.com/sketch/ns">
    <title>scroll_indicator</title>
    <description>Created with Sketch (http://www.bohemiancoding.com/sketch)</description>
    <defs></defs>
    <g id="scroll_indicator" stroke="none" stroke-width="1" fill="none" fill-rule="evenodd" sketch:type="MSPage">
        <g id="scroll_indicato" sketch:type="MSArtboardGroup" transform="translate(-770.000000, -649.000000)" fill="#FFFFFF">
            <g id="Ban_01" sketch:type="MSLayerGroup">
                <g id="Scroll-Indicator" transform="translate(770.000000, 649.000000)" sketch:type="MSShapeGroup">
                    <path d="M34.5179712,61.8830123 L58.2923096,37.9900976 C60.5675555,35.7035037 60.5696876,31.9983453 58.2959554,29.7132727 C56.022723,27.4287024 52.3378885,27.427895 50.0602069,29.7169366 L30.0003627,49.8768309 L9.94051849,29.7169366 C7.66527259,27.4303428 3.97850222,27.4282001 1.70477001,29.7132727 C-0.568462379,31.997843 -0.569265778,35.7010559 1.70841579,37.9900976 L25.2997187,61.6990639 C26.6026001,62.9257202 28.2213385,64.0000002 29.9274722,64 C31.633606,64 32.7426758,63.3237915 33.9138655,62.41292 C34.1241021,62.2525426 34.3260329,62.0759079 34.5179712,61.8830123 Z M34.7198502,59.1126811 L57.1421176,36.4852994 C58.7042247,34.9231923 58.7010542,32.3873457 57.1421356,30.8284271 C55.5800385,29.26633 53.0434444,29.2702641 51.4852633,30.8284452 L30,52.3137085 L8.51473668,30.8284452 C6.95262954,29.266338 4.41678299,29.2695085 2.85786438,30.8284271 C1.29576721,32.3905243 1.29970138,34.9271184 2.85788243,36.4852994 L25.4852633,59.1126803 C26.1682126,59.9018561 27.8031009,61.9999992 30,62 C32.1968991,62.0000007 34.1230484,59.7403571 34.7198502,59.1126811 Z" id="Arrow" fill-opacity="0.5"></path>
                    <path d="M15.3624317,5.29052734 C15.3624317,5.85595986 15.1573556,6.29687342 14.7471973,6.61328125 C14.337039,6.92968908 13.780404,7.08789062 13.0772755,7.08789062 C12.3155529,7.08789062 11.7296213,6.98974708 11.319463,6.79345703 L11.319463,6.07275391 C11.5831361,6.18408259 11.8702427,6.27197233 12.1807911,6.33642578 C12.4913395,6.40087923 12.7989536,6.43310547 13.1036426,6.43310547 C13.601692,6.43310547 13.9766883,6.33862399 14.2286426,6.1496582 C14.480597,5.96069241 14.6065723,5.69775559 14.6065723,5.36083984 C14.6065723,5.13818248 14.561895,4.95581126 14.4725391,4.8137207 C14.3831832,4.67163015 14.2337706,4.54052794 14.0242969,4.42041016 C13.8148232,4.30029237 13.4962229,4.16406326 13.0684864,4.01171875 C12.4708272,3.79785049 12.0438295,3.54443506 11.7874805,3.25146484 C11.5311316,2.95849463 11.402959,2.57617423 11.402959,2.10449219 C11.402959,1.60937252 11.5889923,1.2153335 11.9610645,0.922363281 C12.3331367,0.629393066 12.8253193,0.482910156 13.437627,0.482910156 C14.0763021,0.482910156 14.6636986,0.600096484 15.199834,0.834472656 L14.9669239,1.48486328 C14.4366478,1.26220592 13.921028,1.15087891 13.4200489,1.15087891 C13.0245391,1.15087891 12.7154602,1.23583899 12.4928028,1.40576172 C12.2701454,1.57568444 12.1588184,1.81152193 12.1588184,2.11328125 C12.1588184,2.33593861 12.1998336,2.51830984 12.2818653,2.66040039 C12.363897,2.80249094 12.5023233,2.93286073 12.6971485,3.05151367 C12.8919737,3.17016661 13.1900664,3.30126881 13.5914356,3.44482422 C14.2652671,3.68505979 14.7288855,3.94286972 14.9823048,4.21826172 C15.235724,4.49365372 15.3624317,4.85107202 15.3624317,5.29052734 L15.3624317,5.29052734 Z M20.3873731,1.15087891 C19.6813149,1.15087891 19.1239474,1.38598398 18.7152539,1.85620117 C18.3065605,2.32641837 18.1022168,2.97021076 18.1022168,3.78759766 C18.1022168,4.62842217 18.2992364,5.27807388 18.6932813,5.73657227 C19.0873262,6.19507065 19.6490882,6.42431641 20.378584,6.42431641 C20.8268285,6.42431641 21.3380538,6.34375081 21.9122754,6.18261719 L21.9122754,6.83740234 C21.4669607,7.00439537 20.9176498,7.08789062 20.2643262,7.08789062 C19.3180324,7.08789062 18.5878151,6.80078412 18.0736524,6.2265625 C17.5594897,5.65234088 17.3024122,4.83643107 17.3024122,3.77880859 C17.3024122,3.11669591 17.4261902,2.53662358 17.67375,2.03857422 C17.9213099,1.54052485 18.2787282,1.15673963 18.7460157,0.887207031 C19.2133032,0.617674434 19.7633465,0.482910156 20.3961622,0.482910156 C21.0699936,0.482910156 21.6588549,0.605955801 22.1627637,0.852050781 L21.8463575,1.49365234 C21.3600269,1.26513558 20.8737036,1.15087891 20.3873731,1.15087891 L20.3873731,1.15087891 Z M25.0212012,4.328125 L25.0212012,7 L24.2741309,7 L24.2741309,0.575195312 L26.0363379,0.575195312 C26.8244278,0.575195312 27.4066974,0.72607271 27.7831641,1.02783203 C28.1596308,1.32959135 28.3478613,1.78368837 28.3478613,2.39013672 C28.3478613,3.23975034 27.9172016,3.81396335 27.0558692,4.11279297 L28.8004981,7 L27.9171973,7 L26.3615332,4.328125 L25.0212012,4.328125 Z M25.0212012,3.68652344 L26.045127,3.68652344 C26.5724734,3.68652344 26.9591882,3.58178816 27.2052832,3.37231445 C27.4513782,3.16284075 27.5744238,2.84863491 27.5744238,2.4296875 C27.5744238,2.00488069 27.449181,1.69873141 27.1986914,1.51123047 C26.9482019,1.32372953 26.5461063,1.22998047 25.9923926,1.22998047 L25.0212012,1.22998047 L25.0212012,3.68652344 Z M36.3742676,3.77880859 C36.3742676,4.80713405 36.1142604,5.61571971 35.5942383,6.20458984 C35.0742161,6.79345998 34.351323,7.08789062 33.4255371,7.08789062 C32.4792433,7.08789062 31.749026,6.79858688 31.2348633,6.2199707 C30.7207006,5.64135453 30.463623,4.8247123 30.463623,3.77001953 C30.463623,2.72411586 30.721433,1.91333296 31.2370605,1.33764648 C31.7526881,0.761960012 32.4851027,0.474121094 33.4343262,0.474121094 C34.3571823,0.474121094 35.0778783,0.767086914 35.5964355,1.35302734 C36.1149928,1.93896777 36.3742676,2.74755344 36.3742676,3.77880859 L36.3742676,3.77880859 Z M31.2546387,3.77880859 C31.2546387,4.64893013 31.4399396,5.30883564 31.8105469,5.75854492 C32.1811542,6.2082542 32.7194789,6.43310547 33.4255371,6.43310547 C34.1374547,6.43310547 34.675047,6.20898662 35.0383301,5.76074219 C35.4016131,5.31249776 35.583252,4.65185983 35.583252,3.77880859 C35.583252,2.91454646 35.4023456,2.25903544 35.0405273,1.81225586 C34.6787091,1.36547628 34.1433141,1.14208984 33.4343262,1.14208984 C32.7224085,1.14208984 32.1811542,1.36694111 31.8105469,1.81665039 C31.4399396,2.26635967 31.2546387,2.92040586 31.2546387,3.77880859 L31.2546387,3.77880859 Z M38.7668847,7 L38.7668847,0.575195312 L39.5139551,0.575195312 L39.5139551,6.32324219 L42.3484277,6.32324219 L42.3484277,7 L38.7668847,7 Z M44.3982714,7 L44.3982714,0.575195312 L45.1453418,0.575195312 L45.1453418,6.32324219 L47.9798144,6.32324219 L47.9798144,7 L44.3982714,7 Z" id="SCROLL" opacity="0.5"></path>
                </g>
            </g>
        </g>
    </g>
</svg>