<?xml version="1.0" encoding="UTF-8" standalone="no"?>
<svg width="30px" height="30px" viewBox="0 0 30 30" version="1.1" xmlns="http://www.w3.org/2000/svg" xmlns:xlink="http://www.w3.org/1999/xlink" xmlns:sketch="http://www.bohemiancoding.com/sketch/ns">
    <title>twitter_icon_small</title>
    <description>Created with Sketch (http://www.bohemiancoding.com/sketch)</description>
    <defs></defs>
    <g id="Page-2" stroke="none" stroke-width="1" fill="none" fill-rule="evenodd" sketch:type="MSPage">
        <g id="Artboard-1" sketch:type="MSArtboardGroup" fill="#FFFFFF">
            <g id="Social" sketch:type="MSLayerGroup">
                <path d="M23.6252284,8.8227826 C24.4422915,8.71149882 25.2289767,8.4899911 25.9989016,8.15084053 C26.0083293,8.23668802 25.9549059,8.28014169 25.9213854,8.32783473 C25.3641064,9.12271889 24.6926481,9.81161849 23.914343,10.3934737 C23.8148289,10.4676629 23.7907361,10.5439718 23.7938786,10.6573752 C23.8588247,12.8258192 23.4042023,14.8872188 22.4373443,16.8214369 C20.6261876,20.4492882 17.7779893,22.8138036 13.7900926,23.6807572 C10.8140972,24.327263 7.92714071,23.9965912 5.17740895,22.6452881 C4.77097241,22.4460372 4.37501104,22.2255893 4,21.9585082 C5.64983906,22.111126 7.23577958,21.8864387 8.74944145,21.2081376 C9.40623452,20.9135005 10.023222,20.5510333 10.615069,20.086821 C8.54831821,19.9055874 7.1624534,18.8616396 6.40090865,16.916823 C6.76858706,16.9560373 7.09122226,17.0079697 7.41595248,16.9899523 C7.74277775,16.9708751 8.06646046,16.9390797 8.42575874,16.8362747 C7.35205396,16.5819118 6.48575751,16.0541087 5.82163182,15.2210701 C5.15436358,14.3837921 4.83068087,13.4246319 4.82858584,12.3255721 C5.4602385,12.662603 6.10760392,12.854435 6.80106009,12.8904698 C6.81048774,12.8247594 6.75287431,12.8141609 6.72144881,12.7897845 C5.47595126,11.8359235 4.85582128,10.5704679 4.86839148,9.00613588 C4.87362906,8.28332122 5.0684672,7.60078069 5.41100521,6.96063399 C5.45709595,6.87372665 5.48118884,6.8281533 5.57232281,6.93731739 C7.13207542,8.799466 8.31995954,10.2027015 11.358806,11.0972111 C12.4084178,11.4554389 13.4873602,11.4914737 14.593538,11.5614235 C14.8177066,11.5762613 14.8177066,11.5720219 14.7768535,11.345215 C14.3850822,9.17359147 15.6232471,6.99454905 17.7036156,6.28339269 C19.4802042,5.67716104 21.0745248,6.05128652 22.4478194,7.33157993 C22.546286,7.42378649 22.6311349,7.42802587 22.7442667,7.40152973 C23.6388461,7.20227877 24.4841922,6.87372665 25.2844951,6.42435215 C25.3180156,6.40315523 25.3546787,6.38619771 25.436385,6.34274404 C25.0781343,7.40470927 24.4548617,8.20171312 23.5539972,8.78886754 C23.5498072,8.84185982 23.5602823,8.8460992 23.6252284,8.8227826" id="Twitter" sketch:type="MSShapeGroup"></path>
            </g>
        </g>
    </g>
</svg>