<?xml version="1.0" encoding="UTF-8" standalone="no"?>
<svg width="50px" height="50px" viewBox="0 0 50 50" version="1.1" xmlns="http://www.w3.org/2000/svg" xmlns:xlink="http://www.w3.org/1999/xlink" xmlns:sketch="http://www.bohemiancoding.com/sketch/ns">
    <title>Artboard 1</title>
    <description>Created with Sketch (http://www.bohemiancoding.com/sketch)</description>
    <defs></defs>
    <g id="Page-1" stroke="none" stroke-width="1" fill="none" fill-rule="evenodd" sketch:type="MSPage">
        <g id="Artboard-1" sketch:type="MSArtboardGroup" fill="#FFFFFF">
            <path d="M36.7616751,16.7637101 C37.8758521,16.6153318 38.9486046,16.3199881 39.9985022,15.8677874 C40.0113581,15.9822507 39.938508,16.0401889 39.8927982,16.1037796 C39.1328723,17.1636252 38.2172474,18.082158 37.1559223,18.8579649 C37.0202213,18.9568838 36.9873674,19.058629 36.9916526,19.2098336 C37.0802154,22.1010923 36.4602759,24.849625 35.1418331,27.4285825 C32.672074,32.2657176 28.7881672,35.4184048 23.3501263,36.574343 C19.2919507,37.4363507 15.3551919,36.9954549 11.6055577,35.1937175 C11.051326,34.9280496 10.5113787,34.6341191 10,34.278011 C12.2497805,34.4815013 14.4124267,34.1819183 16.4765111,33.2775168 C17.372138,32.8846674 18.2134845,32.4013778 19.0205486,31.782428 C16.2022521,31.5407832 14.3124365,30.1488527 13.2739663,27.555764 C13.775346,27.6080497 14.2153031,27.6772929 14.658117,27.6532698 C15.1037878,27.6278335 15.5451733,27.5854397 16.0351256,27.4483663 C14.5709827,27.1092157 13.3896693,26.4054783 12.4840434,25.2947602 C11.5741322,24.1783895 11.1327466,22.8995092 11.1298898,21.4340961 C11.9912343,21.8834707 12.8740054,22.1392467 13.8196274,22.187293 C13.8324833,22.0996791 13.7539195,22.0855479 13.7110665,22.0530459 C12.0126608,20.7812313 11.167029,19.0939572 11.1841702,17.0081812 C11.1913124,16.0444283 11.4570007,15.1343743 11.924098,14.2808453 C11.986949,14.1649689 12.019803,14.1042044 12.1440766,14.2497565 C14.2710119,16.7326213 15.8908539,18.603602 20.0347354,19.7962815 C21.4660243,20.2739186 22.9373094,20.3219649 24.4457337,20.4152313 C24.7514181,20.4350151 24.7514181,20.4293626 24.6957093,20.1269533 C24.1614757,17.2314553 25.8498824,14.3260654 28.6867485,13.3778569 C31.1093693,12.5695481 33.283443,13.068382 35.1561174,14.7754399 C35.29039,14.898382 35.406093,14.9040345 35.5603637,14.8687063 C36.7802447,14.6030384 37.9329894,14.1649689 39.0243115,13.5658029 C39.0700213,13.5375403 39.1200165,13.5149303 39.2314342,13.4569921 C38.7429104,14.8729457 37.8929933,15.9356175 36.6645417,16.7184901 C36.658828,16.7891464 36.6731123,16.7947989 36.7616751,16.7637101" id="Twitter_Icon" sketch:type="MSShapeGroup"></path>
        </g>
    </g>
</svg>